HIERARCHY
ROOT Hips
{
  OFFSET 5.72205e-005 65.662 3.42586
  CHANNELS 6 Xposition Yposition Zposition Zrotation Xrotation Yrotation
  JOINT Chest
  {
    OFFSET 0 8.7983 -4.7612
    CHANNELS 3 Zrotation Xrotation Yrotation
    JOINT Chest2
    {
      OFFSET 0 8.0291 0.4195
      CHANNELS 3 Zrotation Xrotation Yrotation
      JOINT Chest3
      {
        OFFSET 0 9.9351 -2.2114
        CHANNELS 3 Zrotation Xrotation Yrotation
        JOINT Neck
        {
          OFFSET 0 22.3885 -0.4656
          CHANNELS 3 Zrotation Xrotation Yrotation
          JOINT Head
          {
            OFFSET -0.0001 12.643 3.4389
            CHANNELS 3 Zrotation Xrotation Yrotation
            End Site
            {
              OFFSET 0.0001 17.6655 0.5274
            }
          }
        }
        JOINT LeftCollar
        {
          OFFSET 2.2603 21.606 7.4023
          CHANNELS 3 Zrotation Xrotation Yrotation
          JOINT LeftShoulder
          {
            OFFSET 13.5163 -1.1332 -5.0146
            CHANNELS 3 Zrotation Xrotation Yrotation
            JOINT LeftElbow
            {
              OFFSET -0.0995 -28.05 -0.2431
              CHANNELS 3 Zrotation Xrotation Yrotation
              JOINT LeftWrist
              {
                OFFSET 0.0679 -23.3996 -0.1402
                CHANNELS 3 Zrotation Xrotation Yrotation
                JOINT LeftFinger1
                {
                  OFFSET 0.7932 -9.069 2.5189
                  CHANNELS 3 Zrotation Xrotation Yrotation
                  JOINT LeftFinger11
                  {
                    OFFSET -0.8272 -3.3923 0.5977
                    CHANNELS 3 Zrotation Xrotation Yrotation
                    JOINT LeftFinger12
                    {
                      OFFSET -0.5649 -2.3158 0.4082
                      CHANNELS 3 Zrotation Xrotation Yrotation
                      End Site
                      {
                        OFFSET -0.4919 -1.6479 0.2673
                      }
                    }
                  }
                }
                JOINT LeftFinger2
                {
                  OFFSET 0.9159 -9.2044 0.2193
                  CHANNELS 3 Zrotation Xrotation Yrotation
                  JOINT LeftFinger21
                  {
                    OFFSET 0.0117 -4.1944 -0.0248
                    CHANNELS 3 Zrotation Xrotation Yrotation
                    JOINT LeftFinger22
                    {
                      OFFSET 0.0071 -2.3249 -0.0142
                      CHANNELS 3 Zrotation Xrotation Yrotation
                      End Site
                      {
                        OFFSET -0.1475 -2.0882 0.0028
                      }
                    }
                  }
                }
                JOINT LeftFinger3
                {
                  OFFSET 0.6113 -8.7231 -2.0637
                  CHANNELS 3 Zrotation Xrotation Yrotation
                  JOINT LeftFinger31
                  {
                    OFFSET -0.1927 -3.8059 -0.2383
                    CHANNELS 3 Zrotation Xrotation Yrotation
                    JOINT LeftFinger32
                    {
                      OFFSET -0.1091 -2.1688 -0.1362
                      CHANNELS 3 Zrotation Xrotation Yrotation
                      End Site
                      {
                        OFFSET -0.2358 -1.9176 -0.0906
                      }
                    }
                  }
                }
                JOINT LeftFinger4
                {
                  OFFSET -0.6151 -8.0947 -3.5641
                  CHANNELS 3 Zrotation Xrotation Yrotation
                  JOINT LeftFinger41
                  {
                    OFFSET -0.4882 -2.341 -0.6462
                    CHANNELS 3 Zrotation Xrotation Yrotation
                    JOINT LeftFinger42
                    {
                      OFFSET -0.3575 -1.7167 -0.4742
                      CHANNELS 3 Zrotation Xrotation Yrotation
                      End Site
                      {
                        OFFSET -0.4187 -1.5237 -0.3496
                      }
                    }
                  }
                }
                JOINT LeftFinger0
                {
                  OFFSET -1.42 -1.8761 1.4223
                  CHANNELS 3 Zrotation Xrotation Yrotation
                  JOINT LeftFinger01
                  {
                    OFFSET -1.1471 -3.4929 2.6334
                    CHANNELS 3 Zrotation Xrotation Yrotation
                    JOINT LeftFinger02
                    {
                      OFFSET -0.823 -2.3 1.6571
                      CHANNELS 3 Zrotation Xrotation Yrotation
                      End Site
                      {
                        OFFSET -0.5822 -1.6914 1.1582
                      }
                    }
                  }
                }
              }
            }
          }
        }
        JOINT RightCollar
        {
          OFFSET -2.2603 21.606 7.4023
          CHANNELS 3 Zrotation Xrotation Yrotation
          JOINT RightShoulder
          {
            OFFSET -13.5187 -1.1334 -5.0155
            CHANNELS 3 Zrotation Xrotation Yrotation
            JOINT RightElbow
            {
              OFFSET 0.0994 -28.0499 -0.2431
              CHANNELS 3 Zrotation Xrotation Yrotation
              JOINT RightWrist
              {
                OFFSET -0.0679 -23.3996 -0.1402
                CHANNELS 3 Zrotation Xrotation Yrotation
                JOINT RightFinger1
                {
                  OFFSET -0.7932 -9.0691 2.5189
                  CHANNELS 3 Zrotation Xrotation Yrotation
                  JOINT RightFinger11
                  {
                    OFFSET 0.8272 -3.3923 0.5977
                    CHANNELS 3 Zrotation Xrotation Yrotation
                    JOINT RightFinger12
                    {
                      OFFSET 0.565 -2.3158 0.4082
                      CHANNELS 3 Zrotation Xrotation Yrotation
                      End Site
                      {
                        OFFSET 0.4919 -1.6479 0.2673
                      }
                    }
                  }
                }
                JOINT RightFinger2
                {
                  OFFSET -0.916 -9.2044 0.2193
                  CHANNELS 3 Zrotation Xrotation Yrotation
                  JOINT RightFinger21
                  {
                    OFFSET -0.0117 -4.1944 -0.0248
                    CHANNELS 3 Zrotation Xrotation Yrotation
                    JOINT RightFinger22
                    {
                      OFFSET -0.0071 -2.3249 -0.0142
                      CHANNELS 3 Zrotation Xrotation Yrotation
                      End Site
                      {
                        OFFSET 0.1475 -2.0882 0.0028
                      }
                    }
                  }
                }
                JOINT RightFinger3
                {
                  OFFSET -0.6113 -8.7231 -2.0637
                  CHANNELS 3 Zrotation Xrotation Yrotation
                  JOINT RightFinger31
                  {
                    OFFSET 0.1927 -3.8059 -0.2383
                    CHANNELS 3 Zrotation Xrotation Yrotation
                    JOINT RightFinger32
                    {
                      OFFSET 0.1091 -2.1688 -0.1362
                      CHANNELS 3 Zrotation Xrotation Yrotation
                      End Site
                      {
                        OFFSET 0.2358 -1.9176 -0.0906
                      }
                    }
                  }
                }
                JOINT RightFinger4
                {
                  OFFSET 0.6151 -8.0947 -3.564
                  CHANNELS 3 Zrotation Xrotation Yrotation
                  JOINT RightFinger41
                  {
                    OFFSET 0.4882 -2.341 -0.6462
                    CHANNELS 3 Zrotation Xrotation Yrotation
                    JOINT RightFinger42
                    {
                      OFFSET 0.3574 -1.7166 -0.4742
                      CHANNELS 3 Zrotation Xrotation Yrotation
                      End Site
                      {
                        OFFSET 0.4187 -1.5237 -0.3496
                      }
                    }
                  }
                }
                JOINT RightFinger0
                {
                  OFFSET 1.4199 -1.8761 1.4221
                  CHANNELS 3 Zrotation Xrotation Yrotation
                  JOINT RightFinger01
                  {
                    OFFSET 1.1472 -3.4929 2.6336
                    CHANNELS 3 Zrotation Xrotation Yrotation
                    JOINT RightFinger02
                    {
                      OFFSET 0.8229 -2.3 1.6571
                      CHANNELS 3 Zrotation Xrotation Yrotation
                      End Site
                      {
                        OFFSET 0.5822 -1.6914 1.1582
                      }
                    }
                  }
                }
              }
            }
          }
        }
      }
    }
  }
  JOINT RightHip
  {
    OFFSET -9.412 3.9771 -0.7758
    CHANNELS 3 Zrotation Xrotation Yrotation
    JOINT RightKnee
    {
      OFFSET -0.7531 -40.938 0
      CHANNELS 3 Zrotation Xrotation Yrotation
      JOINT RightAnkle
      {
        OFFSET 0 -40.1986 0
        CHANNELS 3 Zrotation Xrotation Yrotation
        JOINT RightToe
        {
          OFFSET 0 -4.4182 9.239
          CHANNELS 3 Zrotation Xrotation Yrotation
          End Site
          {
            OFFSET 0 0 6.1981
          }
        }
      }
    }
  }
  JOINT LeftHip
  {
    OFFSET 9.4119 3.9773 -0.7758
    CHANNELS 3 Zrotation Xrotation Yrotation
    JOINT LeftKnee
    {
      OFFSET 0.7532 -40.9383 0
      CHANNELS 3 Zrotation Xrotation Yrotation
      JOINT LeftAnkle
      {
        OFFSET 0 -40.1986 0
        CHANNELS 3 Zrotation Xrotation Yrotation
        JOINT LeftToe
        {
          OFFSET 0 -4.4182 9.239
          CHANNELS 3 Zrotation Xrotation Yrotation
          End Site
          {
            OFFSET 0 0 6.1981
          }
        }
      }
    }
  }
}
MOTION
Frames:	6
Frame Time:	0.0333333
5.72205e-005 65.662 3.42586 0 0 -0 0 0 -0 0 0 -0 0 0 -0 0 0 -0 0 0 -0 0 0 -12.5014 88.1196 14.2451 10.6914 -0.00160068 -0.00239207 0.000740045 -8.4365e-005 7.00714e-005 -9.52055e-007 9.93923e-017 -1.98785e-016 -1.59028e-015 9.93923e-017 -5.96354e-016 -1.59028e-015 -9.93923e-017 -5.96354e-016 -1.59028e-015 9.93923e-017 -1.98785e-016 -1.59028e-015 -0.0128176 0.00232552 8.52707e-005 9.93923e-017 5.96354e-016 -0 9.93923e-017 -1.98785e-016 -1.59028e-015 -0.0160551 0.00299681 0.000857156 -2.48481e-016 0 3.18055e-015 9.93923e-017 -1.98785e-016 -1.59028e-015 -0.0125865 0.0031206 0.00282719 0 1.98785e-016 -0 9.93923e-017 -1.98785e-016 -1.59028e-015 9.93923e-017 -5.96354e-016 -1.59028e-015 -9.93923e-017 -5.96354e-016 -1.59028e-015 -0.865644 0.16582 7.03859 -88.0329 10.2057 -10.5567 0.0015593 -0.00248883 -0.000788628 7.87605e-005 4.10553e-005 1.24965e-005 -3.97569e-016 -7.95139e-016 3.18055e-015 -1.98785e-016 -3.97569e-016 3.18055e-015 -1.98785e-016 0 3.18055e-015 -3.97569e-016 -7.95139e-016 3.18055e-015 0.0129473 0.00231697 -8.70038e-005 9.93923e-017 -7.95139e-016 1.59028e-015 -3.97569e-016 -7.95139e-016 3.18055e-015 0.0163314 0.00303369 -0.000872333 3.97569e-016 7.95139e-016 -3.18055e-015 -3.97569e-016 -7.95139e-016 3.18055e-015 0.0145763 0.00367772 -0.00326275 9.93923e-017 -3.97569e-016 -0 -3.97569e-016 -7.95139e-016 3.18055e-015 -1.98785e-016 -3.97569e-016 3.18055e-015 -1.98785e-016 0 3.18055e-015 3.42482 1.32465 -0.0626183 0.000117508 0.717283 0.000978199 -3.4257 -2.04197 -0.0604716 6.47761e-025 0 -0 -3.42483 1.34017 0.0627307 -0.000193936 0.682302 -0.0013703 3.42574 -2.02253 0.0595886 -8.45714e-024 0 -7.40531e-025 
4.46012 32.0988 -23.0803 -0 0 2.03502e-009 0.220504 0.297158 -1.48802 0.448657 0.588486 -2.97723 0.448657 0.588486 -2.97723 4.49978 -0.000122888 -10.1249 0.0145251 -0.00728577 -11.8596 -10.6677 -0.579081 -19.8111 69.1328 6.69473 30.2281 -14.3121 -31.7599 -6.13375 -18.0416 -1.17443 -1.11099 -6.55702e-006 -5.43318e-007 1.19195e-006 8.35358e-007 -1.93207e-006 1.72289e-006 5.72166e-006 2.47539e-006 -2.91484e-006 -6.55702e-006 -5.43318e-007 1.19195e-006 -0.0128159 0.00231688 7.5933e-005 -6.41286e-006 -7.93965e-007 2.42107e-006 -6.55702e-006 -5.43318e-007 1.19195e-006 -0.016036 0.00298706 0.000856095 -2.07088e-006 3.49861e-014 -1.48064e-006 -6.55702e-006 -5.43318e-007 1.19195e-006 -0.0125679 0.0031189 0.00282665 -1.3806e-006 -9.09936e-007 -9.87106e-007 -6.55702e-006 -5.43318e-007 1.19195e-006 8.35358e-007 -1.93207e-006 1.72289e-006 5.72166e-006 2.47539e-006 -2.91484e-006 19.4069 1.84481 20.1857 -80.6502 12.9018 -12.1889 13.9512 -21.5448 0.645776 11.2398 -3.18794 0.996372 -1.08623e-005 -3.57938e-006 2.71013e-006 6.01823e-006 6.54189e-006 -1.66259e-006 1.47892e-006 -2.26515e-006 -1.56108e-006 -1.08623e-005 -3.57938e-006 2.71013e-006 0.0129868 0.00232438 -8.65125e-005 2.17958e-006 1.13733e-007 -1.75188e-006 -1.08623e-005 -3.57938e-006 2.71013e-006 0.0163474 0.00304241 -0.000874042 1.64991e-014 0 -3.18055e-015 -1.08623e-005 -3.57938e-006 2.71013e-006 0.0145146 0.00366417 -0.00325051 2.5842e-015 3.18055e-015 -0 -1.08623e-005 -3.57938e-006 2.71013e-006 6.01823e-006 6.54189e-006 -1.66259e-006 1.47892e-006 -2.26515e-006 -1.56108e-006 -0.0833217 -27.1545 -4.27492 -113.517 88.8569 113.932 -6.82062 21.9288 -2.84076 3.97569e-016 7.95139e-016 -5.46658e-016 0.0415103 -27.1168 4.22691 109.899 88.9081 -110.276 6.8187 21.6472 2.85072 -5.00156e-007 -4.73176e-008 -8.08538e-007 
7.92626 5.977 -43.5837 0 0 -6.86358e-008 0.418511 0.537534 -2.64351 0.861426 1.05518 -5.29123 0.861426 1.05518 -5.29123 7.9996 -0.000195161 -18 7.60202e-007 1.36688e-006 -21.0004 -19.0661 -1.01129 -25.498 55.1851 -0.0745391 45.0167 -30.4761 -55.8951 -16.5294 -32.0436 -2.17496 -1.30227 -1.27222e-014 -4.96962e-016 3.08116e-015 -9.54166e-015 9.93923e-017 7.95139e-016 3.18055e-015 2.08724e-015 -1.04362e-015 -1.27222e-014 -4.96962e-016 3.08116e-015 -0.0128135 0.00232234 9.25958e-005 -9.54166e-015 6.95746e-016 1.2424e-015 -1.27222e-014 -4.96962e-016 3.08116e-015 -0.0160694 0.00299923 0.000859836 6.36111e-015 8.94531e-016 -2.88238e-015 -1.27222e-014 -4.96962e-016 3.08116e-015 -0.0125698 0.00311727 0.00283685 -3.18055e-015 8.94531e-016 -4.96962e-017 -1.27222e-014 -4.96962e-016 3.08116e-015 -9.54166e-015 9.93923e-017 7.95139e-016 3.18055e-015 2.08724e-015 -1.04362e-015 34.6255 2.96015 30.4317 -74.8483 14.9195 -13.4627 26.0004 -38.1292 2.60036 20.0032 -5.63169 1.54567 1.59028e-015 6.36111e-015 7.95139e-016 -7.95139e-016 0 -0 -1.59028e-015 0 -0 1.59028e-015 6.36111e-015 7.95139e-016 0.0129276 0.00231278 -8.75284e-005 7.95139e-016 -3.18055e-015 -0 1.59028e-015 6.36111e-015 7.95139e-016 0.0163327 0.00303357 -0.000870513 -8.82781e-032 -6.36111e-015 -7.95139e-016 1.59028e-015 6.36111e-015 7.95139e-016 0.0146032 0.00367406 -0.0032657 4.41391e-032 3.18055e-015 -7.95139e-016 1.59028e-015 6.36111e-015 7.95139e-016 -7.95139e-016 0 -0 -1.59028e-015 0 -0 -5.56986 -43.6882 -14.4684 -176.305 22.1165 171.076 -5.1156 37.8698 -10.2708 3.19464e-008 -8.74892e-009 9.38955e-007 5.42713 -43.5857 14.3663 176.354 22.2069 -171.1 5.16348 37.2667 10.2426 -4.15336e-008 -6.23308e-009 -9.38625e-007 
8.42018 2.22704 -46.4529 0 0 -2.64553e-008 0.448678 0.572419 -2.80846 0.924931 1.12215 -5.62171 0.924935 1.12215 -5.62173 8.49957 -0.000208598 -19.125 -0.0929228 0.0485584 -21.9846 -20.273 -1.07087 -26.3106 53.2129 -1.02683 47.0976 -33.9543 -59.2861 -19.1903 -34.038 -2.33348 -1.28312 -5.99584e-006 -9.81262e-006 -3.86592e-006 8.27607e-033 3.97569e-016 -1.19271e-015 4.17661e-006 9.98628e-007 -3.3381e-006 -5.99584e-006 -9.81262e-006 -3.86592e-006 -0.0128594 0.00233991 9.12926e-005 -1.59028e-014 2.38542e-015 -2.78299e-015 -5.99584e-006 -9.81262e-006 -3.86592e-006 -0.016059 0.00300922 0.000867687 -6.36111e-015 1.19271e-015 -3.97569e-016 -5.99584e-006 -9.81262e-006 -3.86592e-006 -0.012581 0.0031294 0.00281578 3.18055e-015 1.19271e-015 3.18055e-015 -5.99584e-006 -9.81262e-006 -3.86592e-006 8.27607e-033 3.97569e-016 -1.19271e-015 4.17661e-006 9.98628e-007 -3.3381e-006 36.7636 3.09734 31.8974 -74.0154 15.2022 -13.6447 27.8827 -40.4807 3.05435 21.2546 -5.98076 1.60787 3.18055e-015 3.18055e-015 -0 -1.59028e-015 -9.54166e-015 1.59028e-015 -0 -6.36111e-015 -0 3.18055e-015 3.18055e-015 -0 0.0129263 0.00232204 -8.54861e-005 0 3.18055e-015 -0 3.18055e-015 3.18055e-015 -0 0.0163594 0.00304458 -0.000875588 1.59028e-015 -6.36111e-015 3.18055e-015 3.18055e-015 3.18055e-015 -0 0.0145809 0.00368756 -0.00325954 3.18055e-015 1.90833e-014 -2.38542e-015 3.18055e-015 3.18055e-015 -0 -1.59028e-015 -9.54166e-015 1.59028e-015 -0 -6.36111e-015 -0 -7.46785 -41.2551 -18.8769 -177.33 12.7244 168.725 -4.81595 35.6413 -12.7578 -7.95139e-016 6.36111e-015 1.59028e-015 7.27368 -41.0882 18.7951 177.359 12.8144 -168.728 4.84929 34.9381 12.747 2.79008e-008 1.61477e-006 -1.79152e-006 
7.92626 5.977 -43.5837 0 0 -6.90058e-008 0.418511 0.537534 -2.64351 0.861426 1.05518 -5.29123 0.861426 1.05518 -5.29123 7.9996 -0.00019524 -18 -0.215648 0.111761 -20.2498 -19.0661 -1.01129 -25.498 55.185 -0.074406 45.0167 -30.4762 -55.8952 -16.5295 -32.0436 -2.17498 -1.30231 -4.81909e-032 1.2921e-015 2.13694e-015 -3.18055e-015 1.09332e-015 -5.46658e-016 -2.32765e-032 5.96354e-016 2.23633e-015 -4.81909e-032 1.2921e-015 2.13694e-015 -0.0127829 0.00233098 9.24939e-005 4.75012e-032 2.88238e-015 -9.44227e-016 -4.81909e-032 1.2921e-015 2.13694e-015 -0.0160631 0.00300849 0.000862989 3.18055e-015 1.39149e-015 1.63997e-015 -4.81909e-032 1.2921e-015 2.13694e-015 -0.0125729 0.00312211 0.0028244 -9.54166e-015 1.09332e-015 -5.96354e-016 -4.81909e-032 1.2921e-015 2.13694e-015 -3.18055e-015 1.09332e-015 -5.46658e-016 -2.32765e-032 5.96354e-016 2.23633e-015 34.6255 2.96015 30.4317 -74.8483 14.9195 -13.4627 26.0003 -38.1293 2.60034 20.0032 -5.63167 1.54569 -3.21275e-006 -1.00887e-005 1.84988e-006 2.87255e-006 1.22272e-005 -2.50832e-006 -2.3203e-007 -1.94755e-005 -2.57521e-007 -3.21275e-006 -1.00887e-005 1.84988e-006 0.0129286 0.00231304 -8.46183e-005 -1.05502e-006 -2.18027e-006 -1.38452e-006 -3.21275e-006 -1.00887e-005 1.84988e-006 0.016341 0.00303706 -0.000877929 -3.51594e-006 -3.93231e-006 2.774e-006 -3.21275e-006 -1.00887e-005 1.84988e-006 0.0146081 0.00367434 -0.00326915 -2.38542e-015 -6.36111e-015 -0 -3.21275e-006 -1.00887e-005 1.84988e-006 2.87255e-006 1.22272e-005 -2.50832e-006 -2.3203e-007 -1.94755e-005 -2.57521e-007 -5.56979 -43.6882 -14.4683 -176.305 22.1164 171.076 -5.1156 37.8697 -10.2709 7.95139e-016 -8.5223e-010 -0 5.42712 -43.5856 14.3663 176.354 22.2069 -171.1 5.16349 37.2668 10.2426 -5.73941e-008 -6.37748e-006 -2.19447e-006 
7.92626 5.977 -43.5837 0 0 -6.90058e-008 0.418511 0.537534 -2.64351 0.861426 1.05518 -5.29123 0.861426 1.05518 -5.29123 7.9996 -0.00019524 -18 -0.324195 0.166669 -19.8738 -19.0661 -1.01129 -25.498 55.185 -0.074406 45.0167 -30.4762 -55.8952 -16.5295 -32.0436 -2.17498 -1.3023 1.90833e-014 -2.98177e-016 2.23633e-015 9.54166e-015 -3.27995e-015 4.62174e-015 1.27222e-014 -3.27995e-015 2.68359e-015 1.90833e-014 -2.98177e-016 2.23633e-015 -0.0127902 0.002327 8.23389e-005 3.18055e-015 -9.93923e-016 4.96962e-016 1.90833e-014 -2.98177e-016 2.23633e-015 -0.0160371 0.00300386 0.000861285 6.36111e-015 9.93923e-016 -2.5345e-015 1.90833e-014 -2.98177e-016 2.23633e-015 -0.0125601 0.00312757 0.00283587 -9.54166e-015 -2.68359e-015 1.73937e-015 1.90833e-014 -2.98177e-016 2.23633e-015 9.54166e-015 -3.27995e-015 4.62174e-015 1.27222e-014 -3.27995e-015 2.68359e-015 34.6255 2.96015 30.4317 -74.8483 14.9195 -13.4627 26.0003 -38.1293 2.60035 20.0032 -5.63165 1.54565 3.03382e-007 -2.10438e-006 1.62552e-007 7.88568e-007 8.29552e-008 1.71782e-006 9.2185e-007 2.92265e-008 1.55115e-006 3.03382e-007 -2.10438e-006 1.62552e-007 0.0129571 0.0023086 -8.1629e-005 9.21727e-007 2.93834e-008 1.55119e-006 3.03382e-007 -2.10438e-006 1.62552e-007 0.0163313 0.00303284 -0.000872916 9.21692e-007 5.12558e-008 1.5512e-006 3.03382e-007 -2.10438e-006 1.62552e-007 0.0146232 0.00368798 -0.00327105 9.21682e-007 5.12439e-008 1.55122e-006 3.03382e-007 -2.10438e-006 1.62552e-007 7.88568e-007 8.29552e-008 1.71782e-006 9.2185e-007 2.92265e-008 1.55115e-006 -5.56978 -43.6882 -14.4683 -176.305 22.1164 171.076 -5.1156 37.8697 -10.2708 -1.59028e-015 -3.18055e-015 -0 5.42709 -43.5857 14.3663 176.354 22.2067 -171.1 5.16347 37.2666 10.2426 -1.59028e-015 1.85802e-009 -1.59028e-015 
